<svg id="facebook" xmlns="http://www.w3.org/2000/svg" width="30" height="30" viewBox="0 0 30 30">
  <path id="Path" d="M30,15.092A15,15,0,1,0,12.656,30V19.454H8.848V15.092h3.809V11.767c0-3.782,2.239-5.872,5.666-5.872a22.931,22.931,0,0,1,3.358.295V9.9H19.788a2.175,2.175,0,0,0-2.444,2.357v2.831H21.5l-.665,4.362h-3.5V30A15.068,15.068,0,0,0,30,15.092Z" fill="#1877f2"/>
  <path id="Path-2" data-name="Path" d="M21.148,19.4l.674-4.311H17.607v-2.8a2.176,2.176,0,0,1,2.476-2.329H22V6.291A23.8,23.8,0,0,0,18.6,6c-3.471,0-5.74,2.064-5.74,5.8v3.285H9V19.4h3.858V29.819a15.651,15.651,0,0,0,4.749,0V19.4Z" fill="#fff"/>
</svg>
