<svg xmlns="http://www.w3.org/2000/svg" width="38" height="38" viewBox="0 0 38 38">
  <g id="india" transform="translate(0)">
    <path id="green" d="M36.919,25.333H1.081a19.008,19.008,0,0,0,35.838,0Z" fill="#1aaf5d" fill-rule="evenodd"/>
    <path id="white" d="M1.081,25.333H36.919a19.091,19.091,0,0,0,0-12.667H1.081a19.091,19.091,0,0,0,0,12.667Z" fill="#fff" fill-rule="evenodd"/>
    <path id="orange" d="M1.081,12.667H36.919a19.008,19.008,0,0,0-35.838,0Z" fill="#e87e04" fill-rule="evenodd"/>
    <path id="emblem" d="M19.961,23.858a4.706,4.706,0,0,0,.811-.212h0a.215.215,0,1,1,.364-.148,4.737,4.737,0,0,0,.748-.428.215.215,0,1,1,.3-.226h0a4.776,4.776,0,0,0,.63-.625h0a.215.215,0,1,1,.214-.277,4.746,4.746,0,0,0,.46-.794.215.215,0,1,1,.124-.3h0a4.72,4.72,0,0,0,.243-.915h0a.215.215,0,1,1,.038-.3q.022-.229.022-.464a4.809,4.809,0,0,0-.026-.5.215.215,0,1,1-.038-.279h0a4.72,4.72,0,0,0-.262-.951h0a.215.215,0,1,1-.106-.249,4.748,4.748,0,0,0-.5-.85.215.215,0,1,1-.172-.217h0a4.775,4.775,0,0,0-.7-.68h0a.215.215,0,1,1-.235-.174,4.734,4.734,0,0,0-.836-.463.215.215,0,1,1-.293-.114h0a4.708,4.708,0,0,0-.9-.22h0a.215.215,0,1,1-.342-.036q-.164-.011-.33-.011a4.788,4.788,0,0,0-.562.033.215.215,0,1,1-.366.058h0a4.7,4.7,0,0,0-.828.245h0a.215.215,0,1,1-.358.161,4.744,4.744,0,0,0-.713.439.215.215,0,1,1-.318.259h0a4.776,4.776,0,0,0-.563.593h0a.215.215,0,1,1-.248.34,4.741,4.741,0,0,0-.386.706l.029.009a.215.215,0,1,1-.161.4l-.022-.01h0a4.722,4.722,0,0,0-.19.773H14.5a.215.215,0,1,1-.052.427l-.01,0q-.01.158-.01.318,0,.24.023.474h.006a.215.215,0,1,1,.06.426h0a4.718,4.718,0,0,0,.213.761h0a.215.215,0,1,1,.168.4h0a4.748,4.748,0,0,0,.4.682l0,0a.215.215,0,1,1,.265.339l-.006,0h0a4.776,4.776,0,0,0,.562.559h0l.008-.011a.215.215,0,0,1,.344.259l-.011.014a4.738,4.738,0,0,0,.69.4.215.215,0,1,1,.393.164h0a4.7,4.7,0,0,0,.779.211h0a.215.215,0,1,1,.416.056q.214.019.434.02h0q.195,0,.386-.015a.215.215,0,1,1,.406-.05Zm-.637-3.811a.855.855,0,0,0,.205-.086h0l.479,1.119,1.418,2.161-1.163-2.309-.73-.974a.864.864,0,0,0,.175-.137l.753.959L22.391,22.5,20.67,20.572l-.959-.753h0a.863.863,0,0,0,.134-.178h0l.978.733,2.309,1.163L20.97,20.118l-1.123-.48a.855.855,0,0,0,.083-.206l1.137.456,2.531.526-2.455-.81-1.212-.174h0a.862.862,0,0,0,.026-.21s0-.007,0-.011h0l1.219.146,2.581-.147-2.581-.147-1.219.146a.86.86,0,0,0-.032-.22l1.218-.175L23.6,18l-2.531.526-1.142.458a.855.855,0,0,0-.088-.2h0l1.134-.485,2.161-1.418-2.309,1.163-.987.74A.864.864,0,0,0,19.7,18.6l.972-.764,1.721-1.929-1.929,1.721L19.7,18.6h0a.863.863,0,0,0-.177-.134h0l.742-.991,1.163-2.309-1.418,2.161-.487,1.138a.861.861,0,0,0-.85,0l-.742-.991-1.163-2.309,1.418,2.161.487,1.138h0a.863.863,0,0,0-.177.134h0l-.764-.972L15.8,15.911l1.721,1.929.972.764a.864.864,0,0,0-.137.175l-.987-.74L15.06,16.876l2.161,1.418,1.134.485h0a.855.855,0,0,0-.088.2h0l-1.142-.458L14.594,18l2.455.81,1.218.175a.86.86,0,0,0-.032.22l-1.219-.146-2.581.147,2.581.147,1.219-.146h0s0,.007,0,.011a.862.862,0,0,0,.026.21h0l-1.212.174-2.455.81,2.531-.526,1.137-.456a.855.855,0,0,0,.083.206l-1.123.48L15.06,21.536l2.309-1.163.978-.733h0a.863.863,0,0,0,.134.178h0l-.959.753L15.8,22.5l1.929-1.721.753-.959a.864.864,0,0,0,.175.137l-.73.974-1.163,2.309,1.418-2.161.479-1.119h0a.855.855,0,0,0,.205.086h0l-.452,1.129-.526,2.531.81-2.455.173-1.2a.861.861,0,0,0,.221.029H19.1l.145,1.207L19.1,23.866l-.147-2.581.145-1.207H19.1a.861.861,0,0,0,.221-.029l.173,1.2.81,2.455-.526-2.531-.452-1.129ZM19.169,24.4a5.236,5.236,0,1,0-5.236-5.236A5.236,5.236,0,0,0,19.169,24.4Zm-1.28-9.7.526,2.531.461,1.149L18.7,17.16,17.89,14.7Zm1.206-.159-.147,2.581.147,1.229.147-1.229L19.1,14.546ZM20.3,14.7l-.81,2.455-.176,1.225.461-1.149L20.3,14.7Z" fill="#227fbb" fill-rule="evenodd"/>
  </g>
</svg>
