<svg id="mail" xmlns="http://www.w3.org/2000/svg" width="30" height="30" viewBox="0 0 30 30">
  <path id="Path" d="M15,30h0A15,15,0,0,0,30,15h0A15,15,0,0,0,15,0h0A15,15,0,0,0,0,15H0A15,15,0,0,0,15,30Z" fill="#323b54"/>
  <path id="Shape" d="M7.5,10.9v8.494a.807.807,0,0,0,.8.837H21.56a.81.81,0,0,0,.8-.837V10.9a.816.816,0,0,0-.8-.9H8.3a.81.81,0,0,0-.8.9m1.222.74a.3.3,0,0,1,.322-.322c.122,0,4.939,3.052,5.231,3.231l.754.469c.239-.16.479-.3.727-.463.506-.323,5-3.237,5.129-3.237a.3.3,0,0,1,.322.322c0,.217-.418.432-.69.6C18.808,13.28,17.1,14.415,15.408,15.5c-.1.067-.29.21-.433.188-.16-.025-5.061-3.174-5.953-3.7-.134-.079-.3-.151-.3-.344" fill="#fff"/>
</svg>
