<svg id="twitter" xmlns="http://www.w3.org/2000/svg" width="30" height="30" viewBox="0 0 30 30">
  <circle id="Dark_Blue" cx="15" cy="15" r="15" fill="#1da1f2"/>
  <path id="Logo__x2014__FIXED" d="M13.334,23a9.93,9.93,0,0,0,9.929-10.057c0-.154,0-.308-.007-.454A7.2,7.2,0,0,0,25,10.657a7.013,7.013,0,0,1-2,.557A3.525,3.525,0,0,0,24.53,9.257a7.013,7.013,0,0,1-2.215.858A3.453,3.453,0,0,0,19.768,9a3.513,3.513,0,0,0-3.488,3.533,3.278,3.278,0,0,0,.094.806A9.859,9.859,0,0,1,9.18,9.645a3.58,3.58,0,0,0-.47,1.774,3.531,3.531,0,0,0,1.556,2.939,3.4,3.4,0,0,1-1.578-.44v.044a3.527,3.527,0,0,0,2.8,3.467,3.438,3.438,0,0,1-.919.125,3.291,3.291,0,0,1-.659-.066,3.49,3.49,0,0,0,3.257,2.455,6.959,6.959,0,0,1-4.335,1.51A6.266,6.266,0,0,1,8,21.4,9.634,9.634,0,0,0,13.334,23" fill="#fff"/>
</svg>
