<svg id="whats-app" xmlns="http://www.w3.org/2000/svg" width="30" height="30" viewBox="0 0 30 30">
  <circle id="Ellipse_18" cx="15" cy="15" r="15" fill="#27d045"/>
  <g id="Group_35" transform="translate(7.25 7)">
    <g id="Group_34">
      <g id="Ellipse_19">
        <circle id="Oval" cx="7.875" cy="7.875" r="7.875" fill="none"/>
        <path id="Oval-2" data-name="Oval" d="M7.25-.625A7.875,7.875,0,1,1-.625,7.25,7.884,7.884,0,0,1,7.25-.625Zm0,14.5A6.625,6.625,0,1,0,.625,7.25,6.632,6.632,0,0,0,7.25,13.875Z" transform="translate(0.625 0.625)" fill="#fff"/>
      </g>
      <path id="Path_126" d="M1.25,12,.1,16.075,4.325,14.9l.225-1.3-2.75.875.725-2.625Z" fill="#fff"/>
      <path id="Path_127" d="M1.75,14.5c0-.025.875-2.925.875-2.925l2.1,1.975Z" fill="#27d045"/>
    </g>
    <path id="Path_128" d="M4.742,4.283a2.35,2.35,0,0,0-.975,1.525,3.565,3.565,0,0,0,.475,1.975,12.719,12.719,0,0,0,2.15,2.45,7.545,7.545,0,0,0,2.4,1.275,2.844,2.844,0,0,0,1.6.15,2.292,2.292,0,0,0,1.2-.8,2.463,2.463,0,0,0,.15-.55,1.467,1.467,0,0,0,0-.5,6.156,6.156,0,0,0-2-.95c-.175.05-.325.375-.525.65s-.275.4-.475.4a4.39,4.39,0,0,1-1.9-1.1,3.969,3.969,0,0,1-1.075-1.5s.15-.175.35-.45a1.416,1.416,0,0,0,.325-.6,8.662,8.662,0,0,0-.875-1.975A2.963,2.963,0,0,0,4.742,4.283Z" fill="#fff"/>
  </g>
</svg>
