<svg xmlns="http://www.w3.org/2000/svg" width="26" height="24" viewBox="0 0 26 24">
  <g id="chat-icon" transform="translate(-141 -12)">
    <g id="Group_26" data-name="Group 26" transform="translate(141 12)">
      <path id="Shape" d="M25.793,20.065,24.262,16.05A11.538,11.538,0,0,0,24.99,12,12.267,12.267,0,0,0,12.5,0,12.27,12.27,0,0,0,0,12,12.27,12.27,0,0,0,12.5,24a12.907,12.907,0,0,0,7-2.069l3.072,1.155a3.269,3.269,0,0,0,1.152.224,2.261,2.261,0,0,0,1.865-.9A2.374,2.374,0,0,0,25.793,20.065Zm-2.066,1.612a1.507,1.507,0,0,1-.531-.113l-3.947-1.483A11.025,11.025,0,0,1,12.5,22.366,10.587,10.587,0,0,1,1.7,12,10.587,10.587,0,0,1,12.5,1.634,10.587,10.587,0,0,1,23.291,12a9.978,9.978,0,0,1-.847,4.031l1.752,4.6C24.443,21.276,24.234,21.676,23.727,21.676Z" fill="#949aa9"/>
      <circle id="Oval" cx="1.5" cy="1.5" r="1.5" transform="translate(16 11)" fill="#949aa9"/>
      <circle id="Oval-2" data-name="Oval" cx="1.5" cy="1.5" r="1.5" transform="translate(11 11)" fill="#949aa9"/>
      <circle id="Oval-3" data-name="Oval" cx="1.5" cy="1.5" r="1.5" transform="translate(6 11)" fill="#949aa9"/>
    </g>
  </g>
</svg>
