<svg id="compo" xmlns="http://www.w3.org/2000/svg" width="19.5" height="13.433" viewBox="0 0 19.5 13.433">
  <path id="Fill-1" d="M1.3,4.333H18.2V1.3H1.3ZM18.85,0H.65A.65.65,0,0,0,0,.65V4.983a.65.65,0,0,0,.65.65h18.2a.65.65,0,0,0,.65-.65V.65A.65.65,0,0,0,18.85,0Z" fill="#949aa9" fill-rule="evenodd"/>
  <path id="Fill-3" d="M1.3,12.133H18.2V9.1H1.3ZM18.85,7.8H.65A.65.65,0,0,0,0,8.45v4.333a.65.65,0,0,0,.65.65h18.2a.65.65,0,0,0,.65-.65V8.45a.65.65,0,0,0-.65-.65Z" fill="#949aa9" fill-rule="evenodd"/>
</svg>
