<svg id="content_style" xmlns="http://www.w3.org/2000/svg" width="20.5" height="14.643" viewBox="0 0 20.5 14.643">
  <path id="Fill-1" d="M19.872,0H.628a.628.628,0,0,0,0,1.255H19.872a.628.628,0,0,0,0-1.255" fill="#949aa9" fill-rule="evenodd"/>
  <path id="Fill-3" d="M15.689,3.347H.628a.628.628,0,1,0,0,1.255H15.689a.628.628,0,1,0,0-1.255" fill="#949aa9" fill-rule="evenodd"/>
  <path id="Fill-5" d="M.628,7.949h9.2a.628.628,0,1,0,0-1.255H.628a.628.628,0,1,0,0,1.255" fill="#949aa9" fill-rule="evenodd"/>
  <path id="Fill-7" d="M14.852,10.041H.628a.628.628,0,0,0,0,1.255H14.852a.628.628,0,0,0,0-1.255" fill="#949aa9" fill-rule="evenodd"/>
  <path id="Fill-9" d="M12.342,13.388H.628a.628.628,0,0,0,0,1.255H12.342a.628.628,0,1,0,0-1.255" fill="#949aa9" fill-rule="evenodd"/>
</svg>
