<svg id="contact" xmlns="http://www.w3.org/2000/svg" width="20.5" height="17.011" viewBox="0 0 20.5 17.011">
  <path id="Fill-1" d="M4.8,4.58A3.271,3.271,0,1,1,8.069,7.851,3.275,3.275,0,0,1,4.8,4.58m5.947,3.7a4.58,4.58,0,1,0-5.351,0,7.509,7.509,0,0,0-5.394,7v1.071a.654.654,0,1,0,1.309,0V15.285c0-3.378,3.033-6.126,6.761-6.126s6.761,2.748,6.761,6.126v1.071a.654.654,0,1,0,1.309,0V15.285a7.509,7.509,0,0,0-5.394-7" fill="#949aa9" fill-rule="evenodd"/>
  <path id="Fill-3" d="M16.539,8.285a3.691,3.691,0,0,0-2.363-6.54.654.654,0,1,0,0,1.309,2.4,2.4,0,1,1,0,4.8.654.654,0,1,0,0,1.309h0a4.835,4.835,0,0,1,5.015,4.619v.833a.654.654,0,0,0,1.309,0v-.833a5.949,5.949,0,0,0-3.961-5.494" fill="#949aa9" fill-rule="evenodd"/>
</svg>
