<svg width="24" height="24" viewBox="0 0 24 24" fill="none" xmlns="http://www.w3.org/2000/svg">
<path d="M12 2C17.523 2 22 6.477 22 12C22 17.523 17.523 22 12 22C6.477 22 2 17.523 2 12C2 6.477 6.477 2 12 2ZM16.596 7.404C16.497 7.30496 16.3662 7.24396 16.2267 7.23171C16.0872 7.21946 15.9478 7.25673 15.833 7.337C12.943 9.365 11.313 10.567 10.939 10.939C10.6576 11.2204 10.4995 11.602 10.4995 12C10.4995 12.398 10.6576 12.7796 10.939 13.061C11.2204 13.3424 11.602 13.5005 12 13.5005C12.398 13.5005 12.7796 13.3424 13.061 13.061C13.28 12.841 14.479 11.21 16.659 8.164C16.7401 8.05035 16.7783 7.91161 16.7668 7.77245C16.7553 7.63329 16.6947 7.50274 16.596 7.404ZM17.5 11C17.2348 11 16.9804 11.1054 16.7929 11.2929C16.6054 11.4804 16.5 11.7348 16.5 12C16.5 12.2652 16.6054 12.5196 16.7929 12.7071C16.9804 12.8946 17.2348 13 17.5 13C17.7652 13 18.0196 12.8946 18.2071 12.7071C18.3946 12.5196 18.5 12.2652 18.5 12C18.5 11.7348 18.3946 11.4804 18.2071 11.2929C18.0196 11.1054 17.7652 11 17.5 11ZM6.5 11C6.23478 11 5.98043 11.1054 5.79289 11.2929C5.60536 11.4804 5.5 11.7348 5.5 12C5.5 12.2652 5.60536 12.5196 5.79289 12.7071C5.98043 12.8946 6.23478 13 6.5 13C6.76522 13 7.01957 12.8946 7.20711 12.7071C7.39464 12.5196 7.5 12.2652 7.5 12C7.5 11.7348 7.39464 11.4804 7.20711 11.2929C7.01957 11.1054 6.76522 11 6.5 11ZM8.818 7.404C8.72575 7.30849 8.61541 7.23231 8.4934 7.1799C8.3714 7.12749 8.24018 7.0999 8.1074 7.09875C7.97462 7.0976 7.84294 7.1229 7.72005 7.17318C7.59715 7.22346 7.4855 7.29771 7.3916 7.3916C7.29771 7.4855 7.22346 7.59715 7.17318 7.72005C7.1229 7.84294 7.0976 7.97462 7.09875 8.1074C7.0999 8.24018 7.12749 8.3714 7.1799 8.4934C7.23231 8.61541 7.30849 8.72575 7.404 8.818C7.5926 9.00016 7.8452 9.10095 8.1074 9.09867C8.3696 9.0964 8.62041 8.99123 8.80582 8.80582C8.99123 8.62041 9.0964 8.3696 9.09867 8.1074C9.10095 7.8452 9.00016 7.5926 8.818 7.404ZM12 5.5C11.7348 5.5 11.4804 5.60536 11.2929 5.79289C11.1054 5.98043 11 6.23478 11 6.5C11 6.76522 11.1054 7.01957 11.2929 7.20711C11.4804 7.39464 11.7348 7.5 12 7.5C12.2652 7.5 12.5196 7.39464 12.7071 7.20711C12.8946 7.01957 13 6.76522 13 6.5C13 6.23478 12.8946 5.98043 12.7071 5.79289C12.5196 5.60536 12.2652 5.5 12 5.5Z" fill="#0D0D0D"/>
</svg>
