<svg xmlns="http://www.w3.org/2000/svg" width="21.997" height="22" viewBox="0 0 21.997 22">
  <path id="details_heart" d="M5.58-1A6.027,6.027,0,0,1,10,.919,5.993,5.993,0,0,1,14.41-1a6.518,6.518,0,0,1,5.145,2.5c1.054,1.369,2.076,3.889.957,8.123l-.011.039a18.43,18.43,0,0,1-5.848,8.294,27.42,27.42,0,0,1-2.9,2.167c-1.362.88-1.514.88-1.744.88s-.383,0-1.746-.88a27.445,27.445,0,0,1-2.906-2.167A18.417,18.417,0,0,1-.5,9.659l-.011-.04c-1.119-4.239-.1-6.76.956-8.129A6.506,6.506,0,0,1,5.58-1Zm4.427,5.944-.9-1.833A3.913,3.913,0,0,0,5.58,1,4.493,4.493,0,0,0,2.029,2.711C.913,4.16.7,6.365,1.417,9.089,3.064,14.395,8.4,17.9,10.005,18.85c1.6-.953,6.931-4.456,8.579-9.761.715-2.72.5-4.923-.613-6.372A4.506,4.506,0,0,0,14.41,1,3.892,3.892,0,0,0,10.9,3.11Z" transform="translate(0.998 1)" fill="#949aa9"/>
</svg>
