<svg xmlns="http://www.w3.org/2000/svg" width="25.491" height="24.409" viewBox="0 0 25.491 24.409">
  <g id="heart-icon" transform="translate(0)">
    <path id="Heart" d="M23.878,3.034A7.907,7.907,0,0,0,17.582,0,7.454,7.454,0,0,0,12.75,1.763,7.492,7.492,0,0,0,7.9,0,7.9,7.9,0,0,0,1.611,3.029C.426,4.588-.717,7.412.562,12.018l.01.037.012.036a19.674,19.674,0,0,0,6.655,8.993c.041.033,4.239,3.325,5.513,3.325s5.466-3.292,5.507-3.325a19.675,19.675,0,0,0,6.648-8.993l.012-.036.011-.037C26.208,7.417,25.064,4.592,23.878,3.034Zm-.664,8.508c-2.266,6.981-10.458,11.087-10.462,11.087S4.544,18.523,2.278,11.542C.294,4.4,4.65,1.781,7.9,1.781a5.427,5.427,0,0,1,4.854,2.784,5.388,5.388,0,0,1,4.83-2.784C20.83,1.781,25.2,4.4,23.214,11.542Z" fill="#949aa9"/>
  </g>
</svg>
