<svg xmlns="http://www.w3.org/2000/svg" width="18.184" height="18.409" viewBox="0 0 18.184 18.409">
  <g id="infinite_scroll" transform="translate(0)">
    <g id="Group-3">
      <path id="Fill-1" d="M5.28.219A.753.753,0,0,0,4.463.057a.771.771,0,0,0-.244.162l-4,4A.75.75,0,0,0,1.28,5.28L4,2.56V13.749a.75.75,0,0,0,1.5,0V2.56L8.219,5.28A.75.75,0,1,0,9.28,4.219Z" fill="#949aa9" fill-rule="evenodd"/>
    </g>
    <path id="Fill-4" d="M17.964,13.129a.75.75,0,0,0-1.061,0l-2.719,2.72V4.659a.75.75,0,0,0-1.5,0v11.19l-2.72-2.72A.75.75,0,1,0,8.9,14.19l4,4a.774.774,0,0,0,.244.161.747.747,0,0,0,.287.058.762.762,0,0,0,.53-.219l4-4a.75.75,0,0,0,0-1.061" fill="#949aa9" fill-rule="evenodd"/>
  </g>
</svg>
