<svg xmlns="http://www.w3.org/2000/svg" width="19.5" height="20.367" viewBox="0 0 19.5 20.367">
  <g id="icon" transform="translate(0 0)">
    <g id="Group-3">
      <path id="Fill-1" d="M13.961,17.309a.655.655,0,0,0-.505.031,8.26,8.26,0,0,1-3.706.86A8.45,8.45,0,1,1,18.2,9.75a8.368,8.368,0,0,1-1.545,4.859.653.653,0,0,0-.082.591l1.214,3.455Zm3.947-2.229A9.661,9.661,0,0,0,19.5,9.75,9.75,9.75,0,1,0,9.75,19.5a9.574,9.574,0,0,0,4.033-.874l4.851,1.7a.653.653,0,0,0,.675-.153.653.653,0,0,0,.154-.676Z" fill="#949aa9" fill-rule="evenodd"/>
    </g>
    <path id="Fill-4" d="M13.65,6.933H5.85a.65.65,0,0,0,0,1.3h7.8a.65.65,0,0,0,0-1.3" fill="#949aa9" fill-rule="evenodd"/>
    <path id="Fill-6" d="M13.65,9.533H5.85a.65.65,0,1,0,0,1.3h7.8a.65.65,0,0,0,0-1.3" fill="#949aa9" fill-rule="evenodd"/>
    <path id="Fill-8" d="M13.65,12.133H5.85a.65.65,0,1,0,0,1.3h7.8a.65.65,0,0,0,0-1.3" fill="#949aa9" fill-rule="evenodd"/>
  </g>
</svg>
