<svg xmlns="http://www.w3.org/2000/svg" width="30" height="30" viewBox="0 0 30 30">
  <g id="mailbox" transform="translate(-22 -20)">
    <g id="Group_418" data-name="Group 418" transform="translate(22 20)">
      <path id="Shape" d="M24,5.4H15.6V4.2h1.8a1.8,1.8,0,0,0,1.8-1.8V1.8A1.8,1.8,0,0,0,17.4,0H15a.6.6,0,0,0-.6.6V5.4H6a6.007,6.007,0,0,0-6,6V22.2a.6.6,0,0,0,.6.6H14.4v6.6a.6.6,0,1,0,1.2,0V22.8H18v6.6a.6.6,0,1,0,1.2,0V22.8H29.4a.6.6,0,0,0,.6-.6V11.4A6.007,6.007,0,0,0,24,5.4ZM15.6,1.2h1.8a.6.6,0,0,1,.6.6v.6a.6.6,0,0,1-.6.6H15.6ZM1.2,11.4a4.8,4.8,0,0,1,9.6,0V21.6H1.2ZM28.8,21.6H12V11.4A5.988,5.988,0,0,0,9.585,6.6H14.4v12a.6.6,0,1,0,1.2,0V6.6H24a4.806,4.806,0,0,1,4.8,4.8Z" fill="#949aa9"/>
      <path id="Path" d="M7.8,12.6H4.2a.6.6,0,1,0,0,1.2H7.8a.6.6,0,0,0,0-1.2Z" fill="#949aa9"/>
      <path id="Path-2" data-name="Path" d="M25.8,14.4H20.4a.6.6,0,1,0,0,1.2h5.4a.6.6,0,1,0,0-1.2Z" fill="#949aa9"/>
      <path id="Path-3" data-name="Path" d="M25.8,18H22.2a.6.6,0,0,0,0,1.2h3.6a.6.6,0,1,0,0-1.2Z" fill="#949aa9"/>
    </g>
  </g>
</svg>
