<svg xmlns="http://www.w3.org/2000/svg" width="25" height="25" viewBox="0 0 25 25">
  <g id="newspaper" transform="translate(-23 -24)">
    <g id="Group_416" data-name="Group 416" transform="translate(23 24)">
      <path id="Shape" d="M23.5,6H22V4.5A1.5,1.5,0,0,0,20.5,3H19V1.5A1.5,1.5,0,0,0,17.5,0H1.5A1.5,1.5,0,0,0,0,1.5v20A3.5,3.5,0,0,0,3.5,25H21.508A3.5,3.5,0,0,0,25,21.5V7.5A1.5,1.5,0,0,0,23.5,6ZM3.5,24A2.5,2.5,0,0,1,1,21.5V1.5A.5.5,0,0,1,1.5,1h16a.5.5,0,0,1,.5.5V21.374A3.687,3.687,0,0,0,19.1,24Zm17.923,0A2.585,2.585,0,0,1,19,21.374V4h1.5a.5.5,0,0,1,.5.5V21.2a3.854,3.854,0,0,0,1.119,2.712,2.563,2.563,0,0,1-.7.089ZM24,21.5a2.426,2.426,0,0,1-.928,1.928A2.859,2.859,0,0,1,22,21.2V7h1.5a.5.5,0,0,1,.5.5Z" fill="#fff"/>
      <path id="Path" d="M5,4h9a.5.5,0,0,0,0-1H5A.5.5,0,0,0,5,4Z" fill="#fff"/>
      <path id="Path-2" data-name="Path" d="M3.5,6.917H7a.5.5,0,0,0,0-1H3.5a.5.5,0,0,0,0,1Z" fill="#fff"/>
      <path id="Path-3" data-name="Path" d="M3.5,9.833H7a.5.5,0,0,0,0-1H3.5a.5.5,0,0,0,0,1Z" fill="#fff"/>
      <path id="Path-4" data-name="Path" d="M3.5,12.75H7a.5.5,0,0,0,0-1H3.5a.5.5,0,0,0,0,1Z" fill="#fff"/>
      <path id="Path-5" data-name="Path" d="M15.5,14.667H3.5a.5.5,0,0,0,0,1h12a.5.5,0,0,0,0-1Z" fill="#fff"/>
      <path id="Path-6" data-name="Path" d="M15.5,17.583H3.5a.5.5,0,0,0,0,1h12a.5.5,0,1,0,0-1Z" fill="#fff"/>
      <path id="Path-7" data-name="Path" d="M15.5,20.5H3.5a.5.5,0,0,0,0,1h12a.5.5,0,0,0,0-1Z" fill="#fff"/>
      <path id="Shape-2" data-name="Shape" d="M15.5,6h-6a.5.5,0,0,0-.5.5v6a.5.5,0,0,0,.5.5h6a.5.5,0,0,0,.5-.5v-6A.5.5,0,0,0,15.5,6ZM15,12H10V7h5Z" fill="#fff"/>
    </g>
  </g>
</svg>
