<svg id="notification" xmlns="http://www.w3.org/2000/svg" width="16.5" height="19.719" viewBox="0 0 16.5 19.719">
  <path id="Fill-1" d="M8.25,4.024A4.237,4.237,0,0,0,5.209,5.278,4.077,4.077,0,0,0,4.024,8.294a.6.6,0,1,0,1.207,0,2.893,2.893,0,0,1,.835-2.168,3.04,3.04,0,0,1,2.183-.9.6.6,0,0,0,0-1.207" fill="#949aa9" fill-rule="evenodd"/>
  <path id="Fill-3" d="M2.014,16.1c1.607-1.954,1.607-3.818,1.607-7.807A4.542,4.542,0,0,1,4.92,5a4.728,4.728,0,0,1,6.658,0,4.543,4.543,0,0,1,1.3,3.3c0,3.989,0,5.853,1.607,7.807ZM8.25,18.512A1.407,1.407,0,0,1,6.861,17.3H9.638A1.406,1.406,0,0,1,8.25,18.512Zm0-17.3a.6.6,0,1,1-.6.6.6.6,0,0,1,.6-.6Zm8.057,15.05c-2.147-1.985-2.221-3.087-2.221-7.967a5.709,5.709,0,0,0-1.648-4.143,5.78,5.78,0,0,0-2.586-1.51,1.79,1.79,0,0,0,.209-.826,1.811,1.811,0,1,0-3.622,0,1.79,1.79,0,0,0,.209.826A5.778,5.778,0,0,0,4.06,4.148,5.711,5.711,0,0,0,2.414,8.29c0,4.88-.075,5.983-2.221,7.967A.6.6,0,0,0,.6,17.3H5.654a2.6,2.6,0,0,0,5.191,0H15.9a.6.6,0,0,0,.41-1.047Z" fill="#949aa9" fill-rule="evenodd"/>
</svg>
