<svg xmlns="http://www.w3.org/2000/svg" width="17.5" height="17.5" viewBox="0 0 17.5 17.5">
  <path id="pages" d="M40.383,29.894H39.266v-12.1a.559.559,0,0,0-.559-.559h-12.1V16.117H40.383Zm-2.234,1.489H25.117V18.351H38.149V31.383ZM40.941,15H26.048a.559.559,0,0,0-.559.559v1.676h-.931a.559.559,0,0,0-.559.559V31.941a.559.559,0,0,0,.559.559H38.707a.559.559,0,0,0,.559-.559v-.931h1.676a.559.559,0,0,0,.559-.559V15.559A.559.559,0,0,0,40.941,15Z" transform="translate(-24 -15)" fill="#949aa9" fill-rule="evenodd"/>
</svg>
