<svg xmlns="http://www.w3.org/2000/svg" width="28.782" height="29.363" viewBox="0 0 28.782 29.363">
  <g id="pull_to_refresh" transform="translate(12.531 -2.324) rotate(36)">
    <path id="Fill-1" d="M21,13.94a9.438,9.438,0,0,1-9.42,9.538A9.677,9.677,0,0,1,2,13.849a9.458,9.458,0,0,1,7.793-9.5V2l5.255,2.548L9.793,7.3V5.131a8.889,8.889,0,0,0,1.716,17.583,8.965,8.965,0,0,0,8.74-8.773Z" fill="#949aa9" fill-rule="evenodd"/>
    <path id="Fill-1_-_Outline" data-name="Fill-1 - Outline" d="M11.58,23.728a9.737,9.737,0,0,1-6.917-2.9A9.815,9.815,0,0,1,1.75,13.849,9.7,9.7,0,0,1,9.543,4.138V1.6L15.6,4.54,9.543,7.71V5.44A8.677,8.677,0,0,0,3,13.813a8.59,8.59,0,0,0,8.508,8.651A8.73,8.73,0,0,0,20,13.94v-.25H21.25v.25a9.785,9.785,0,0,1-2.832,6.945A9.564,9.564,0,0,1,11.58,23.728ZM10.043,2.4V4.561l-.21.034A9.2,9.2,0,0,0,2.25,13.849a9.48,9.48,0,0,0,9.33,9.379,9.236,9.236,0,0,0,9.166-9.038H20.5a9.134,9.134,0,0,1-2.641,6.025,8.766,8.766,0,0,1-12.7.053A9.113,9.113,0,0,1,4.639,7.974,8.917,8.917,0,0,1,9.745,4.885l.3-.058V6.884l4.449-2.327Z" fill="#949aa9"/>
  </g>
</svg>
