<svg xmlns="http://www.w3.org/2000/svg" width="13.5" height="13.5" viewBox="0 0 13.5 13.5">
  <g transform="translate(-63.75 -13.75)">
    <path id="search-icon" d="M76.841,26.077l-3.125-3.125a5.474,5.474,0,1,0-.767.767l3.125,3.123a.541.541,0,1,0,.767-.764Zm-7.362-2.21a4.389,4.389,0,1,1,4.391-4.388A4.394,4.394,0,0,1,69.479,23.867Z" fill="#425060"/>
    <path id="search-icon_-_Outline" data-name="search-icon - Outline" d="M76.457,27.25a.787.787,0,0,1-.56-.232l-2.968-2.966a5.733,5.733,0,1,1,1.12-1.12L77.018,25.9a.791.791,0,0,1-.56,1.35Zm-3.492-3.869,3.285,3.283a.291.291,0,0,0,.413,0,.288.288,0,0,0,0-.409l-3.287-3.287.144-.175a5.224,5.224,0,1,0-.732.732Zm-3.487.735a4.639,4.639,0,1,1,4.641-4.638A4.645,4.645,0,0,1,69.479,24.117Zm0-8.779a4.139,4.139,0,1,0,4.141,4.141A4.146,4.146,0,0,0,69.479,15.338Z" fill="#425060"/>
  </g>
</svg>
