<svg xmlns="http://www.w3.org/2000/svg" width="27" height="23" viewBox="0 0 27 23">
  <g id="share-icon" transform="translate(-282 -12)">
    <g id="Group_27" data-name="Group 27" transform="translate(309 12) rotate(90)">
      <path id="Shape" d="M19.167,27H3.833A3.818,3.818,0,0,1,0,23.2V15.5a3.819,3.819,0,0,1,3.833-3.8H6.9a.761.761,0,1,1,0,1.522H3.833a2.292,2.292,0,0,0-2.3,2.283v7.7a2.292,2.292,0,0,0,2.3,2.283H19.167a2.291,2.291,0,0,0,2.3-2.283V15.5a2.292,2.292,0,0,0-2.3-2.283H16.1a.761.761,0,1,1,0-1.522h3.067A3.819,3.819,0,0,1,23,15.5v7.7A3.818,3.818,0,0,1,19.167,27ZM17.123,7.392,12.267,2.572V17.065a.767.767,0,0,1-1.533,0V2.572L5.877,7.392a.753.753,0,0,1-1.059,0,.74.74,0,0,1,0-1.051L10.879.326a.716.716,0,0,1,.073-.11A.749.749,0,0,1,11.492,0L11.5,0l.008,0a.749.749,0,0,1,.54.215.67.67,0,0,1,.07.107l6.064,6.018a.74.74,0,0,1,0,1.051A.753.753,0,0,1,17.123,7.392Z" fill="#949aa9"/>
    </g>
  </g>
</svg>
