<svg xmlns="http://www.w3.org/2000/svg" width="17.5" height="19.056" viewBox="0 0 17.5 19.056">
  <path id="share" d="M37.417,31.889A2.92,2.92,0,0,1,34.5,28.972a2.84,2.84,0,0,1,.346-1.374l0-.006,0,0a2.916,2.916,0,1,1,2.565,4.3M27.306,25.667a2.139,2.139,0,1,1,1.881-3.154h0l0,0,0,0a2.135,2.135,0,0,1,0,2.021,2.148,2.148,0,0,1-1.884,1.127m10.111-10.5a2.917,2.917,0,1,1-2.54,4.352.46.46,0,0,0-.03-.062,2.84,2.84,0,0,1-.346-1.374,2.92,2.92,0,0,1,2.917-2.917m0,9.722a4.064,4.064,0,0,0-3.281,1.656l-3.694-1.99a3.2,3.2,0,0,0,0-2.054l3.7-1.985a4.1,4.1,0,1,0-.553-1.026l-3.7,1.985a3.306,3.306,0,1,0,0,4.106l3.7,1.992a4.081,4.081,0,1,0,3.832-2.684" transform="translate(-24 -14)" fill="#949aa9" fill-rule="evenodd"/>
</svg>
