<svg id="Group_417" data-name="Group 417" xmlns="http://www.w3.org/2000/svg" width="25" height="25" viewBox="0 0 25 25">
  <path id="Path" d="M9.5,3a.5.5,0,0,0,0-1A1.5,1.5,0,0,1,8,.5a.5.5,0,0,0-1,0A2.5,2.5,0,0,0,9.5,3Z" fill="#949aa9"/>
  <path id="Path-2" data-name="Path" d="M8.5,5a.5.5,0,0,0,0-1A3.5,3.5,0,0,1,5,.5a.5.5,0,0,0-1,0A4.505,4.505,0,0,0,8.5,5Z" fill="#949aa9"/>
  <path id="Path-3" data-name="Path" d="M7.5,7a.5.5,0,0,0,0-1A5.506,5.506,0,0,1,2,.5a.5.5,0,0,0-1,0A6.507,6.507,0,0,0,7.5,7Z" fill="#949aa9"/>
  <path id="Path-4" data-name="Path" d="M15.5,3A2.5,2.5,0,0,0,18,.5a.5.5,0,0,0-1,0A1.5,1.5,0,0,1,15.5,2a.5.5,0,0,0,0,1Z" fill="#949aa9"/>
  <path id="Path-5" data-name="Path" d="M16,4.5a.5.5,0,0,0,.5.5A4.505,4.505,0,0,0,21,.5a.5.5,0,0,0-1,0A3.5,3.5,0,0,1,16.5,4,.5.5,0,0,0,16,4.5Z" fill="#949aa9"/>
  <path id="Path-6" data-name="Path" d="M17,6.5a.5.5,0,0,0,.5.5A6.507,6.507,0,0,0,24,.5a.5.5,0,0,0-1,0A5.506,5.506,0,0,1,17.5,6,.5.5,0,0,0,17,6.5Z" fill="#949aa9"/>
  <path id="Shape" d="M24.5,24H21.847l-3.563-9.5H18.5a.5.5,0,0,0,0-1h-.591L15.472,7H15.5a.5.5,0,0,0,0-1h-.4L12.968.324a.5.5,0,0,0-.936,0L9.9,6H9.5a.5.5,0,0,0,0,1h.028L7.091,13.5H6.5a.5.5,0,0,0,0,1h.216L3.153,24H.5a.5.5,0,0,0,0,1h24a.5.5,0,0,0,0-1ZM16.621,12.914,13.207,9.5l1.552-1.552ZM9.207,13.5,12.5,10.207,15.793,13.5Zm6.335,1L12.5,16.867,9.457,14.5ZM12.5,1.924,14.028,6H10.972ZM14.293,7,12.5,8.793,10.707,7Zm-4.052.948L11.793,9.5,8.379,12.914ZM7.784,14.5h.045l3.857,3-7.1,5.52ZM4.957,24,12.5,18.133,20.043,24Zm8.357-6.5,3.857-3h.045l3.195,8.52Z" fill="#949aa9"/>
</svg>
